<svg width="173.35" height="23.607" viewBox="0 0 173.35 23.607" xmlns="http://www.w3.org/2000/svg"><g id="svgGroup" stroke-linecap="round" fill-rule="nonzero" font-size="9pt" stroke="#ffb8b8" stroke-width="1" fill="#ffb8b8" style="stroke:#ffb8b8;stroke-width:1;fill:#ffb8b8"><path d="M 141.475 17.804 L 139 17.804 L 137.05 4.979 L 139.225 4.679 L 140.7 15.304 L 145.425 5.729 L 147.8 5.729 L 149.1 15.304 L 154.35 4.679 L 156.2 5.629 L 149.975 17.804 L 147.5 17.804 L 146.2 8.254 L 141.475 17.804 Z M 10.725 17.804 L 12.125 9.829 L 3.775 9.829 L 2.375 17.804 L 0 17.804 L 3.075 0.304 L 5.45 0.304 L 4.125 7.779 L 12.475 7.779 L 13.8 0.304 L 16.175 0.304 L 13.1 17.804 L 10.725 17.804 Z M 80.625 14.154 L 81.7 12.204 L 78.4 3.379 Q 78.15 2.704 77.713 2.429 Q 77.275 2.154 76.525 2.154 L 77.525 0.179 Q 78.85 0.179 79.55 0.716 Q 80.25 1.254 80.65 2.479 L 83.175 9.854 L 88.55 0.104 L 90.525 1.179 L 83 14.304 Q 81.85 16.304 80.713 17.204 Q 79.575 18.104 77.875 18.104 Q 76.9 18.104 76.025 17.729 Q 75.15 17.354 74.575 16.729 L 76.025 15.029 Q 76.425 15.479 76.925 15.766 Q 77.425 16.054 78.05 16.054 Q 79.55 16.054 80.625 14.154 Z M 73.975 5.404 L 71.8 17.954 Q 71.5 19.679 70.888 20.779 Q 70.275 21.879 69.463 22.491 Q 68.65 23.104 67.75 23.354 Q 66.85 23.604 65.975 23.604 Q 64.275 23.604 63.088 22.904 Q 61.9 22.204 61.15 21.279 L 62.9 19.979 Q 64.125 21.654 66.125 21.654 Q 67.375 21.654 68.325 20.729 Q 69.275 19.804 69.675 17.579 L 70.1 15.129 Q 69.4 16.254 68.363 17.029 Q 67.325 17.804 66.025 17.804 Q 64.825 17.804 63.738 17.204 Q 62.65 16.604 61.963 15.454 Q 61.275 14.304 61.275 12.629 Q 61.275 10.204 62.35 8.379 Q 63.425 6.554 65.3 5.529 Q 67.175 4.504 69.525 4.504 Q 71 4.504 72.125 4.804 Q 73.25 5.104 73.975 5.404 Z M 70.85 10.354 L 71.5 6.729 Q 71.025 6.579 70.5 6.491 Q 69.975 6.404 69.275 6.404 Q 67.6 6.404 66.313 7.191 Q 65.025 7.979 64.3 9.329 Q 63.575 10.679 63.575 12.379 Q 63.575 13.504 64.013 14.266 Q 64.45 15.029 65.15 15.416 Q 65.85 15.804 66.625 15.804 Q 67.575 15.804 68.425 15.129 Q 69.275 14.454 69.913 13.229 Q 70.55 12.004 70.85 10.354 Z M 17.75 13.079 L 19.175 4.804 L 21.425 4.804 L 19.975 13.029 Q 19.95 13.279 19.925 13.466 Q 19.9 13.654 19.9 13.879 Q 19.9 15.004 20.55 15.554 Q 21.2 16.104 22.075 16.104 Q 23.025 16.104 23.938 15.516 Q 24.85 14.929 25.55 13.829 Q 26.25 12.729 26.525 11.179 L 27.65 4.804 L 29.9 4.804 L 28.25 14.279 Q 28.225 14.404 28.213 14.566 Q 28.2 14.729 28.2 14.904 Q 28.2 15.604 28.6 15.891 Q 29 16.179 29.65 16.179 L 28.875 17.929 Q 27.525 17.929 26.813 17.266 Q 26.1 16.604 26.1 15.204 L 26.1 14.979 Q 24.275 18.104 21.325 18.104 Q 20.325 18.104 19.488 17.654 Q 18.65 17.204 18.15 16.391 Q 17.65 15.579 17.65 14.454 Q 17.65 14.129 17.675 13.791 Q 17.7 13.454 17.75 13.079 Z M 49.7 12.629 L 48.8 17.804 L 46.55 17.804 L 48.825 4.804 L 51 4.804 L 50.45 7.804 Q 51.225 6.304 52.538 5.404 Q 53.85 4.504 55.3 4.504 Q 57 4.504 58.025 5.541 Q 59.05 6.579 59.05 8.079 Q 59.05 8.704 58.9 9.654 L 57.475 17.804 L 55.225 17.804 L 56.6 10.029 Q 56.725 9.429 56.75 9.141 Q 56.775 8.854 56.775 8.604 Q 56.775 7.629 56.213 7.054 Q 55.65 6.479 54.725 6.479 Q 53.85 6.479 52.825 7.129 Q 51.8 7.779 50.938 9.141 Q 50.075 10.504 49.7 12.629 Z M 106.45 12.629 L 105.55 17.804 L 103.3 17.804 L 105.575 4.804 L 107.75 4.804 L 107.2 7.804 Q 107.975 6.304 109.288 5.404 Q 110.6 4.504 112.05 4.504 Q 113.75 4.504 114.775 5.541 Q 115.8 6.579 115.8 8.079 Q 115.8 8.704 115.65 9.654 L 114.225 17.804 L 111.975 17.804 L 113.35 10.029 Q 113.475 9.429 113.5 9.141 Q 113.525 8.854 113.525 8.604 Q 113.525 7.629 112.963 7.054 Q 112.4 6.479 111.475 6.479 Q 110.6 6.479 109.575 7.129 Q 108.55 7.779 107.688 9.141 Q 106.825 10.504 106.45 12.629 Z M 134.95 16.079 L 134.1 18.104 Q 133.575 18.104 133.125 17.954 Q 132.675 17.804 132.125 17.391 Q 131.575 16.979 130.725 16.179 Q 129.575 17.154 128.3 17.629 Q 127.025 18.104 125.45 18.104 Q 123.125 18.104 121.525 17.079 Q 119.925 16.054 119.1 14.304 Q 118.275 12.554 118.275 10.429 Q 118.275 8.429 118.888 6.566 Q 119.5 4.704 120.688 3.216 Q 121.875 1.729 123.6 0.866 Q 125.325 0.004 127.575 0.004 Q 129.9 0.004 131.5 1.041 Q 133.1 2.079 133.925 3.816 Q 134.75 5.554 134.75 7.679 Q 134.75 10.004 134.05 11.729 Q 133.35 13.454 132.175 14.854 Q 133 15.479 133.65 15.779 Q 134.3 16.079 134.95 16.079 Z M 127.475 13.129 L 128.875 11.679 L 130.625 13.554 Q 131.45 12.454 131.888 10.941 Q 132.325 9.429 132.325 7.829 Q 132.325 6.229 131.775 4.929 Q 131.225 3.629 130.125 2.841 Q 129.025 2.054 127.375 2.054 Q 125.775 2.054 124.538 2.729 Q 123.3 3.404 122.438 4.579 Q 121.575 5.754 121.138 7.229 Q 120.7 8.704 120.7 10.279 Q 120.7 11.854 121.25 13.166 Q 121.8 14.479 122.9 15.266 Q 124 16.054 125.65 16.054 Q 126.75 16.054 127.638 15.741 Q 128.525 15.429 129.3 14.854 L 127.475 13.129 Z M 173.35 16.079 L 172.5 18.104 Q 171.975 18.104 171.525 17.954 Q 171.075 17.804 170.525 17.391 Q 169.975 16.979 169.125 16.179 Q 167.975 17.154 166.7 17.629 Q 165.425 18.104 163.85 18.104 Q 161.525 18.104 159.925 17.079 Q 158.325 16.054 157.5 14.304 Q 156.675 12.554 156.675 10.429 Q 156.675 8.429 157.288 6.566 Q 157.9 4.704 159.088 3.216 Q 160.275 1.729 162 0.866 Q 163.725 0.004 165.975 0.004 Q 168.3 0.004 169.9 1.041 Q 171.5 2.079 172.325 3.816 Q 173.15 5.554 173.15 7.679 Q 173.15 10.004 172.45 11.729 Q 171.75 13.454 170.575 14.854 Q 171.4 15.479 172.05 15.779 Q 172.7 16.079 173.35 16.079 Z M 165.875 13.129 L 167.275 11.679 L 169.025 13.554 Q 169.85 12.454 170.288 10.941 Q 170.725 9.429 170.725 7.829 Q 170.725 6.229 170.175 4.929 Q 169.625 3.629 168.525 2.841 Q 167.425 2.054 165.775 2.054 Q 164.175 2.054 162.938 2.729 Q 161.7 3.404 160.838 4.579 Q 159.975 5.754 159.538 7.229 Q 159.1 8.704 159.1 10.279 Q 159.1 11.854 159.65 13.166 Q 160.2 14.479 161.3 15.266 Q 162.4 16.054 164.05 16.054 Q 165.15 16.054 166.038 15.741 Q 166.925 15.429 167.7 14.854 L 165.875 13.129 Z M 44.45 5.404 L 42.875 14.279 Q 42.85 14.404 42.838 14.566 Q 42.825 14.729 42.825 14.904 Q 42.825 15.604 43.225 15.891 Q 43.625 16.179 44.275 16.179 L 43.5 17.929 Q 42.15 17.929 41.438 17.266 Q 40.725 16.604 40.725 15.204 Q 40.025 16.404 38.963 17.254 Q 37.9 18.104 36.475 18.104 Q 35.25 18.104 34.175 17.441 Q 33.1 16.779 32.425 15.566 Q 31.75 14.354 31.75 12.679 Q 31.75 10.254 32.813 8.416 Q 33.875 6.579 35.75 5.541 Q 37.625 4.504 40.025 4.504 Q 41.5 4.504 42.613 4.804 Q 43.725 5.104 44.45 5.404 Z M 41.3 10.604 L 41.975 6.729 Q 41.5 6.579 40.988 6.491 Q 40.475 6.404 39.75 6.404 Q 38.025 6.404 36.75 7.179 Q 35.475 7.954 34.763 9.316 Q 34.05 10.679 34.05 12.404 Q 34.05 13.604 34.488 14.429 Q 34.925 15.254 35.625 15.679 Q 36.325 16.104 37.075 16.104 Q 38.1 16.104 38.95 15.404 Q 39.8 14.704 40.413 13.454 Q 41.025 12.204 41.3 10.604 Z M 101.2 5.404 L 99.625 14.279 Q 99.6 14.404 99.588 14.566 Q 99.575 14.729 99.575 14.904 Q 99.575 15.604 99.975 15.891 Q 100.375 16.179 101.025 16.179 L 100.25 17.929 Q 98.9 17.929 98.188 17.266 Q 97.475 16.604 97.475 15.204 Q 96.775 16.404 95.713 17.254 Q 94.65 18.104 93.225 18.104 Q 92 18.104 90.925 17.441 Q 89.85 16.779 89.175 15.566 Q 88.5 14.354 88.5 12.679 Q 88.5 10.254 89.563 8.416 Q 90.625 6.579 92.5 5.541 Q 94.375 4.504 96.775 4.504 Q 98.25 4.504 99.363 4.804 Q 100.475 5.104 101.2 5.404 Z M 98.05 10.604 L 98.725 6.729 Q 98.25 6.579 97.738 6.491 Q 97.225 6.404 96.5 6.404 Q 94.775 6.404 93.5 7.179 Q 92.225 7.954 91.513 9.316 Q 90.8 10.679 90.8 12.404 Q 90.8 13.604 91.238 14.429 Q 91.675 15.254 92.375 15.679 Q 93.075 16.104 93.825 16.104 Q 94.85 16.104 95.7 15.404 Q 96.55 14.704 97.163 13.454 Q 97.775 12.204 98.05 10.604 Z"/></g></svg>